<svg width="683" height="372" viewBox="0 0 683 372" fill="none" xmlns="http://www.w3.org/2000/svg">
<path d="M134.397 183.667L120.751 183.917H117.939C116.564 183.917 115.616 183.568 115.105 182.875C114.59 182.193 114.241 180.313 114.064 177.229C114.064 177.229 114.064 176.542 114.064 175.167C114.064 173.792 114.064 170.927 114.064 166.563C114.064 162.188 114.022 155.542 113.939 146.625C113.855 137.709 113.814 125.833 113.814 111C113.814 96.1668 113.814 77.6043 113.814 55.3127H77.793C76.0846 55.3127 75.1367 54.8022 74.9596 53.771C74.793 52.7293 74.6263 50.8439 74.4596 48.1043L73.168 7.7085V6.68766C73.168 5.146 73.5065 4.20329 74.1888 3.85433C74.8815 3.51058 76.0846 3.3335 77.793 3.3335C84.4857 3.3335 90.1471 3.38558 94.7721 3.47933C99.4076 3.56266 103.96 3.646 108.418 3.72933C112.876 3.81266 118.189 3.93766 124.355 4.10433C134.132 3.93766 144.033 3.771 154.064 3.60433C164.105 3.42725 174.095 3.3335 184.043 3.3335C185.928 3.3335 187.215 3.55225 187.897 3.97933C188.574 4.41162 188.835 5.65641 188.668 7.7085L187.376 48.1043C187.21 50.8439 187.033 52.7293 186.855 53.771C186.689 54.8022 185.751 55.3127 184.043 55.3127C182.319 54.9689 179.095 54.7502 174.376 54.6668C169.668 54.5731 164.569 54.521 159.085 54.521C153.595 54.521 149.824 54.5731 147.772 54.6668C145.715 54.7502 144.689 54.9689 144.689 55.3127C144.689 65.5939 144.637 77.8908 144.543 92.2085C144.46 106.531 144.418 121.063 144.418 135.813C144.418 143.188 144.418 150.396 144.418 157.438C144.418 164.469 144.507 171.063 144.689 177.229C144.507 180.313 144.158 182.193 143.647 182.875C143.132 183.568 142.105 183.917 140.564 183.917H138.001C136.97 183.917 136.194 183.875 135.668 183.792C135.152 183.709 134.73 183.667 134.397 183.667Z" fill="#FD6D5D"/>
<path d="M257.094 184.938C242.688 184.938 231.5 182.531 223.531 177.729C215.557 172.938 209.812 166.219 206.302 157.563C202.786 148.896 200.641 138.865 199.865 127.458C199.099 116.057 198.719 103.833 198.719 90.7918C198.719 76.5731 199.49 63.9325 201.031 52.8752C202.573 41.8075 205.396 32.4168 209.51 24.7085C213.62 16.9897 219.62 11.1147 227.51 7.0835C235.396 3.04183 245.688 1.021 258.385 1.021C266.271 1.021 273.391 2.05745 279.74 4.12516C286.083 6.18245 291.573 9.91162 296.198 15.3127C300.823 20.7033 304.375 28.3752 306.865 38.3335C309.349 48.2814 310.594 61.2241 310.594 77.1668C310.594 87.6252 309.646 95.3439 307.76 100.313C305.885 105.287 302.286 107.771 296.969 107.771C288.563 107.771 279.906 107.948 270.99 108.292C262.073 108.641 252.896 108.813 243.469 108.813C241.063 108.813 238.62 109.073 236.135 109.583C233.646 110.099 232.406 111.724 232.406 114.458C232.406 116.698 232.573 119.615 232.906 123.208C233.25 126.807 234.115 130.37 235.49 133.896C236.865 137.412 239.177 140.37 242.427 142.771C245.688 145.162 250.24 146.354 256.073 146.354C264.641 146.354 271.073 145.073 275.365 142.5C279.656 139.932 281.802 134.448 281.802 126.042C281.802 122.615 282.656 120.641 284.365 120.125C286.083 119.615 287.802 119.354 289.51 119.354H308.802C309.995 119.354 310.594 120.125 310.594 121.667V130.938C310.594 149.62 306.391 163.292 297.99 171.959C289.583 180.61 275.953 184.938 257.094 184.938ZM236.01 87.7085L277.677 86.1668C279.911 86.0002 281.286 85.2814 281.802 84.0002C282.313 82.7085 282.573 81.2033 282.573 79.4793V76.396C282.573 67.3127 281.495 60.7189 279.344 56.6043C277.203 52.4793 274.073 49.8231 269.948 48.6252C265.833 47.4168 260.698 46.8127 254.531 46.8127C249.208 46.8127 245.01 48.1877 241.927 50.9377C238.844 53.6772 236.573 57.0158 235.115 60.9585C233.656 64.9064 232.708 68.7241 232.281 72.4168C231.849 76.0991 231.635 78.9689 231.635 81.021V83.3335C231.635 85.0575 232.188 86.2189 233.302 86.8127C234.411 87.4116 235.313 87.7085 236.01 87.7085Z" fill="#F7BB4F"/>
<path d="M370.546 182.896C359.739 182.896 351.077 182.073 344.567 180.437C338.051 178.812 333.077 175.771 329.65 171.312C326.218 166.854 323.9 160.557 322.692 152.417C321.494 144.265 320.9 133.677 320.9 120.646C320.9 110.354 322.098 102.292 324.505 96.4582C326.906 90.6248 330.463 86.3853 335.171 83.729C339.89 81.0623 345.676 79.3488 352.525 78.5832C359.385 77.8071 367.192 77.4165 375.942 77.4165H388.546C391.296 77.4165 393.822 77.1613 396.13 76.6457C398.447 76.1353 399.609 74.5103 399.609 71.7707C399.609 69.3696 399.473 66.7082 399.213 63.7915C398.963 60.8748 398.109 58.0936 396.65 55.4373C395.192 52.7707 392.869 50.5415 389.692 48.7498C386.525 46.9478 381.942 46.0415 375.942 46.0415C374.744 46.0415 372.218 46.0832 368.359 46.1665C364.494 46.2498 360.119 46.3436 355.234 46.4373C350.343 46.5207 345.63 46.604 341.088 46.6873C336.546 46.7707 332.859 46.854 330.025 46.9373C327.192 47.0207 325.864 47.0623 326.046 47.0623C323.807 47.0623 322.609 46.4686 322.442 45.2707C322.275 44.078 322.098 41.2498 321.921 36.7915L321.15 9.52067C321.15 8.6613 321.109 7.8488 321.025 7.08317C320.942 6.30713 320.9 5.6613 320.9 5.14567C320.9 2.74463 322.098 1.5415 324.505 1.5415L375.421 5.39567C395.14 6.93734 409.676 15.1248 419.025 29.9582C428.369 44.7915 433.135 66.6196 433.317 95.4373L433.817 168.229C433.817 174.578 433.64 178.385 433.296 179.667C432.963 180.958 432.109 181.604 430.734 181.604L401.15 182.896H400.9C400.718 182.896 400.369 182.76 399.859 182.5C399.343 182.25 399.088 181.776 399.088 181.083V162.562C397.546 164.62 395.827 167.281 393.942 170.542C392.067 173.807 389.364 176.682 385.838 179.167C382.322 181.651 377.223 182.896 370.546 182.896ZM372.088 139.417C377.057 139.417 381.218 138.177 384.567 135.687C387.911 133.203 390.656 130.161 392.796 126.562C394.932 122.953 396.557 119.349 397.671 115.75C398.796 112.156 399.567 109.114 399.984 106.625C400.411 104.14 400.63 102.896 400.63 102.896C400.63 101.177 400.031 100.015 398.838 99.4165C397.64 98.8228 396.697 98.5207 396.005 98.5207H390.859C378.859 98.5207 370.156 99.078 364.755 100.187C359.348 101.302 355.921 103.015 354.463 105.333C353.005 107.656 352.275 110.786 352.275 114.729V121.667C352.275 127.323 353.176 131.396 354.984 133.896C356.786 136.385 359.234 137.927 362.317 138.521C365.4 139.12 368.656 139.417 372.088 139.417Z" fill="#2FB0F9"/>
<path d="M496.076 179.021C482.701 179.021 472.149 176.453 464.43 171.313C456.706 166.177 451.212 157.307 447.951 144.708C444.701 132.099 443.076 114.729 443.076 92.6042C443.076 79.7448 443.712 67.7448 444.993 56.6042C446.285 45.4531 448.602 35.6354 451.951 27.1458C455.295 18.6458 460.097 12 466.347 7.20833C472.607 2.40625 480.628 0 490.41 0C510.295 0 525.811 5.28125 536.951 15.8333C548.102 26.375 553.68 41.849 553.68 62.25C553.68 67.5729 553.597 70.8333 553.43 72.0417C553.264 73.2396 552.831 73.8333 552.139 73.8333C546.649 74.1667 542.41 74.5521 539.41 74.9792C536.41 75.4115 534.139 75.625 532.597 75.625C530.706 75.625 529.373 74.5156 528.597 72.2917C527.831 70.0573 526.764 67.9115 525.389 65.8542C522.982 62.2448 519.253 59.2448 514.201 56.8542C509.144 54.4531 503.524 53.25 497.347 53.25C488.43 53.25 482.123 54.6667 478.43 57.5C474.748 60.3229 472.519 65.1198 471.743 71.8958C470.977 78.6771 470.597 87.8906 470.597 99.5417C470.597 107.948 470.852 114.594 471.368 119.479C471.878 124.37 473.04 127.974 474.847 130.292C476.649 132.599 479.394 134.057 483.076 134.667C486.769 135.266 491.785 135.563 498.118 135.563C504.295 135.563 509.014 134.24 512.264 131.583C515.524 128.917 518.055 125.87 519.847 122.438C521.649 119.01 523.243 115.969 524.618 113.313C525.993 110.646 527.79 109.313 530.014 109.313H551.118C552.144 109.313 552.998 110.26 553.68 112.146C554.373 114.036 554.722 116.521 554.722 119.604C554.722 124.411 553.732 130.161 551.764 136.854C549.79 143.536 546.524 150.094 541.972 156.521C537.43 162.953 531.43 168.313 523.972 172.604C516.514 176.885 507.212 179.021 496.076 179.021Z" fill="#67C9A5"/>
<path d="M674.326 189.834H644.222C640.972 189.834 638.914 189.401 638.055 188.542C637.19 187.693 636.763 185.813 636.763 182.896V123.729C636.763 121.677 636.503 120.349 635.993 119.75C635.477 119.141 634.451 118.578 632.909 118.063C629.993 117.552 627.159 117.208 624.409 117.042C621.67 116.865 619.019 116.771 616.451 116.771C612.503 116.771 609.414 116.906 607.18 117.167C604.956 117.417 601.44 117.719 596.638 118.063C595.44 118.063 594.711 118.24 594.451 118.583C594.201 118.932 594.076 120.302 594.076 122.688V168.479C594.076 170.203 593.94 171.24 593.68 171.584C593.43 171.917 592.357 172.084 590.472 172.084H570.659C568.951 172.084 567.748 171.828 567.055 171.313C566.373 170.802 566.034 169.516 566.034 167.459C566.201 165.057 566.326 162.448 566.409 159.625C566.503 156.792 566.555 153.229 566.555 148.938C566.555 143.104 566.503 135.219 566.409 125.271C566.326 115.328 566.243 101.912 566.159 85.021C566.076 68.12 566.034 46.6408 566.034 20.5835V13.6252C566.034 10.8908 566.159 9.05225 566.409 8.10433C566.67 7.16162 567.659 6.68766 569.368 6.68766H588.409C590.295 6.68766 591.711 6.98975 592.659 7.5835C593.602 8.18245 594.076 10.1981 594.076 13.6252V79.2293C594.076 81.6356 594.201 83.0939 594.451 83.6043C594.711 84.12 595.44 84.3752 596.638 84.3752H626.743C627.602 84.3752 628.289 82.7502 628.805 79.5002C629.315 76.2397 629.743 72.0366 630.076 66.896C630.42 61.745 630.68 56.2085 630.847 50.2918C631.024 44.3752 631.118 38.6772 631.118 33.1877C631.118 27.521 631.065 22.5522 630.972 18.271C630.888 13.9793 630.763 11.2293 630.597 10.021C630.597 6.771 631.232 4.84912 632.513 4.25016C633.805 3.64079 635.909 3.3335 638.826 3.3335C641.909 3.51579 644.993 3.646 648.076 3.72933C651.17 3.81266 655.378 3.85433 660.701 3.85433C663.618 3.85433 666.269 3.81266 668.659 3.72933C671.06 3.646 673.378 3.51579 675.618 3.3335C678.534 3.3335 680.414 3.80745 681.263 4.75016C682.123 5.69808 682.555 7.88558 682.555 11.3127V182.896C682.555 186.146 681.909 188.11 680.618 188.792C679.336 189.485 677.243 189.834 674.326 189.834Z" fill="#FD6D5D"/>
<path d="M63.5403 371.049C57.608 371.049 51.7122 369.424 45.8528 366.174C40.0038 362.924 35.1965 358.658 31.4361 353.382C27.6705 348.101 25.7903 342.351 25.7903 336.132C25.7903 330.351 27.6288 325.471 31.3111 321.486C35.0038 317.513 39.7799 314.513 45.6445 312.486C51.5038 310.471 57.759 309.611 64.4153 309.903C67.733 309.611 70.8736 309.533 73.832 309.674C76.8007 309.825 79.4413 309.903 81.7486 309.903C84.6497 309.903 86.1028 308.45 86.1028 305.549C85.9465 300.497 85.6913 295.622 85.332 290.924C84.9674 286.216 84.4986 281.481 83.9153 276.716C83.7747 274.69 83.1965 273.57 82.1861 273.361C81.1705 273.143 80.0872 273.82 78.9361 275.403C75.8945 279.46 72.0611 283.08 67.4361 286.257C62.8111 289.44 57.9674 291.028 52.9153 291.028C46.5507 291.028 41.233 289.148 36.957 285.382C32.6913 281.622 29.4778 276.559 27.3111 270.195C25.1445 263.835 23.8424 256.82 23.4153 249.153C23.259 247.278 22.9674 246.309 22.5403 246.236C22.108 246.169 21.6028 247.002 21.0195 248.736C19.7278 252.059 18.608 254.841 17.6653 257.091C16.7174 259.33 15.6028 261.893 14.3111 264.778C13.1445 267.377 11.6236 269.044 9.74863 269.778C7.87363 270.502 6.03508 270.393 4.22779 269.445C2.41008 268.502 1.13925 266.981 0.415292 264.882C-0.303458 262.789 -0.0899156 260.361 1.06113 257.611C4.10279 250.528 6.56113 244.71 8.43613 240.153C10.3215 235.601 11.8788 231.549 13.1028 228.007C14.3372 224.466 15.4622 220.82 16.4778 217.07C17.1965 214.169 18.207 212.07 19.4986 210.778C20.8007 209.476 22.6132 208.82 24.9361 208.82C28.8372 208.82 31.8736 210.195 34.0403 212.945C36.207 215.695 37.2903 219.169 37.2903 223.361C37.2903 225.96 37.3215 228.705 37.3945 231.591C37.4778 234.481 37.5872 237.377 37.7278 240.278C38.0195 246.778 38.7747 252.669 39.9986 257.945C41.233 263.226 42.9674 267.455 45.207 270.632C47.457 273.815 50.2382 275.403 53.5611 275.403C56.6028 275.403 59.5663 274.289 62.457 272.049C65.3424 269.799 68.0507 266.981 70.582 263.591C73.108 260.19 75.2747 256.648 77.082 252.966C78.8997 249.273 80.1705 245.981 80.8945 243.091C81.1861 242.08 81.3632 241.21 81.4361 240.486C81.5038 239.768 81.5403 238.898 81.5403 237.882C81.5403 233.257 81.608 229.648 81.7486 227.049C81.8997 224.44 82.5507 221.611 83.707 218.57C84.7174 216.111 86.1653 214.601 88.0403 214.028C89.9257 213.445 91.5924 213.153 93.0403 213.153C95.3424 213.153 97.4361 214.169 99.3111 216.195C101.197 218.226 102.144 220.611 102.144 223.361C102.144 225.96 101.78 228.273 101.061 230.299C100.337 232.315 99.6132 234.414 98.8945 236.591C98.1705 238.757 97.8111 241.502 97.8111 244.82C97.8111 246.851 97.9465 248.841 98.2278 250.799C98.5195 252.747 98.7382 254.731 98.8945 256.757C99.7538 264.705 100.546 271.789 101.269 278.007C101.988 284.231 102.353 290.809 102.353 297.736C102.353 299.476 102.858 300.669 103.874 301.32C104.884 301.976 106.113 301.872 107.561 301.007C113.78 297.382 118.988 293.044 123.186 287.986C127.379 282.934 130.921 277.695 133.811 272.278C136.697 266.851 139.155 261.96 141.186 257.611C142.197 255.445 143.676 254.111 145.624 253.611C147.582 253.101 149.462 253.247 151.269 254.049C153.072 254.841 154.405 256.184 155.269 258.07C156.144 259.945 156.004 262.184 154.853 264.778C148.78 278.518 142.092 289.757 134.79 298.507C127.483 307.257 117.9 314.304 106.04 319.653C103.874 320.513 102.504 322.825 101.936 326.591C99.4778 340.757 94.6965 351.705 87.6028 359.445C80.5195 367.179 72.4986 371.049 63.5403 371.049ZM65.0611 354.57C68.5299 354.57 71.5663 353.195 74.1653 350.445C76.759 347.705 78.9257 344.455 80.6653 340.695C82.3997 336.929 83.5611 333.455 84.1445 330.278C84.8632 327.247 83.4882 325.736 80.0195 325.736C72.6445 325.736 66.1028 325.914 60.3945 326.278C54.6861 326.638 50.1965 327.611 46.9361 329.195C43.6861 330.789 42.0611 333.393 42.0611 337.007C42.0611 340.325 43.4361 343.325 46.1861 346.007C48.9361 348.684 52.1132 350.783 55.7278 352.299C59.3372 353.809 62.4465 354.57 65.0611 354.57Z" fill="#031925"/>
<path d="M245.729 257.612C246.88 255.31 248.437 253.903 250.396 253.403C252.354 252.893 254.234 253.07 256.041 253.945C257.843 254.81 259.146 256.185 259.937 258.07C260.729 259.945 260.547 262.185 259.396 264.778C257.364 269.403 254.218 274.028 249.958 278.653C245.692 283.278 240.484 287.007 234.333 289.841C228.192 292.664 221.151 293.851 213.208 293.403C211.026 293.268 209.213 294.065 207.771 295.799C204.588 299.841 200.609 303.018 195.833 305.32C191.067 307.638 185.291 308.799 178.5 308.799C170.692 308.799 164.151 306.888 158.875 303.07C153.593 299.237 149.583 294.07 146.833 287.57C144.083 281.06 142.708 273.82 142.708 265.862C142.708 259.794 143.656 253.757 145.541 247.757C147.416 241.757 150.125 236.377 153.666 231.612C157.208 226.836 161.437 223.289 166.354 220.966C167.364 220.539 168.192 220.106 168.833 219.674C169.484 219.231 170.25 218.726 171.125 218.153C175.026 215.403 179.505 214.028 184.562 214.028C191.364 214.028 197.333 216.018 202.458 219.987C207.593 223.961 211.646 229.023 214.604 235.174C217.573 241.315 219.062 247.565 219.062 253.924C219.062 257.122 218.916 260.31 218.625 263.487C218.333 266.669 217.896 269.851 217.312 273.028C217.031 274.476 217.396 275.669 218.396 276.612C219.406 277.544 220.927 277.794 222.958 277.362C228.885 276.351 233.625 273.82 237.166 269.778C240.708 265.726 243.562 261.669 245.729 257.612ZM196.5 272.799C197.802 273.674 199 273.862 200.083 273.362C201.166 272.851 201.854 271.872 202.146 270.424C202.573 268.106 202.927 265.757 203.208 263.382C203.5 260.997 203.646 258.497 203.646 255.882C203.646 251.981 202.812 247.976 201.146 243.862C199.489 239.737 197.218 236.299 194.333 233.549C191.442 230.799 188.114 229.424 184.354 229.424C184.354 229.424 184.276 229.424 184.125 229.424C183.984 229.424 183.406 229.752 182.396 230.403C181.38 231.06 180.51 231.893 179.791 232.903C179.5 233.336 178.989 233.914 178.271 234.632C177.547 235.356 176.896 236.007 176.312 236.591C175.739 237.164 175.312 238.028 175.021 239.195C174.729 240.351 174.583 241.289 174.583 242.007C174.583 245.622 175.812 249.455 178.271 253.507C180.729 257.549 183.656 261.31 187.062 264.778C190.463 268.252 193.609 270.924 196.5 272.799ZM158.104 266.299C158.104 271.648 159.187 276.382 161.354 280.507C163.521 284.632 166.302 287.893 169.708 290.278C173.109 292.653 176.614 293.841 180.229 293.841C183.271 293.841 185.942 293.19 188.25 291.882C189.843 291.023 190.567 289.981 190.416 288.757C190.276 287.523 189.484 286.466 188.041 285.591C183.26 282.414 178.739 278.549 174.479 274.007C170.213 269.455 166.562 264.497 163.521 259.132C162.521 257.549 161.51 256.872 160.5 257.091C159.484 257.299 158.833 258.419 158.541 260.445C158.401 261.461 158.291 262.44 158.208 263.382C158.135 264.315 158.104 265.289 158.104 266.299Z" fill="#031925"/>
<path d="M374.13 257.611C375.432 255.018 377.025 253.502 378.9 253.07C380.786 252.643 382.598 252.966 384.338 254.049C386.072 255.132 387.338 256.653 388.13 258.611C388.921 260.559 388.807 262.611 387.796 264.778C384.322 272.294 380.38 279.091 375.963 285.174C371.557 291.247 366.786 296.085 361.65 299.695C356.525 303.309 351.14 305.111 345.505 305.111C340.296 305.111 335.593 303.455 331.4 300.132C327.218 296.815 323.755 292.622 321.005 287.549C319.406 284.523 317.593 284.523 315.567 287.549C310.51 295.507 305.525 300.934 300.609 303.82C295.692 306.705 291.213 308.153 287.171 308.153C280.656 308.153 275.593 306.492 271.984 303.174C268.369 299.841 265.838 295.398 264.38 289.841C262.932 284.273 262.213 278.164 262.213 271.507C262.213 271.216 262.213 270.893 262.213 270.528C262.213 270.169 262.213 269.841 262.213 269.549C262.213 267.382 262.031 265.216 261.671 263.049C261.307 260.882 260.984 260.164 260.692 260.882C260.411 261.455 260.13 262.065 259.838 262.716C259.546 263.372 259.255 264.059 258.963 264.778C257.515 267.82 255.781 269.669 253.755 270.32C251.744 270.96 249.869 270.736 248.13 269.653C246.395 268.57 245.234 266.945 244.65 264.778C244.067 262.611 244.432 260.226 245.734 257.611C250.359 248.794 253.64 242.252 255.588 237.986C257.546 233.726 258.963 230.653 259.838 228.778C261.713 224.434 264.275 221.861 267.525 221.07C270.786 220.278 273.65 221.226 276.109 223.903C278.567 226.57 279.359 231.018 278.484 237.236C278.343 238.252 278.234 239.122 278.15 239.841C278.077 240.565 278.046 241.434 278.046 242.445C277.906 245.768 277.723 249.486 277.505 253.611C277.296 257.736 277.192 262.039 277.192 266.507C277.192 271.289 277.406 275.705 277.838 279.757C278.265 283.799 279.202 287.049 280.65 289.507C282.093 291.966 284.265 293.195 287.171 293.195C290.489 293.195 293.661 291.898 296.692 289.299C299.734 286.69 302.515 283.434 305.046 279.528C307.588 275.627 309.76 271.653 311.567 267.611C313.369 263.559 314.702 260.007 315.567 256.966C316.01 254.94 316.234 253.205 316.234 251.757C316.369 245.981 316.723 240.382 317.296 234.966C317.88 229.539 319.072 225.049 320.88 221.507C322.697 217.966 325.411 216.195 329.025 216.195C331.327 216.195 333.385 216.919 335.192 218.361C337.01 219.809 338.202 222.414 338.775 226.174C339.494 229.648 339.348 233.731 338.338 238.424C337.338 243.122 335.609 247.856 333.15 252.632C332.702 253.497 332.338 254.294 332.046 255.028C331.765 255.752 331.551 256.611 331.4 257.611C330.968 261.528 331.364 265.877 332.588 270.653C333.822 275.419 335.671 279.57 338.13 283.111C340.588 286.653 343.406 288.424 346.588 288.424C350.197 288.424 353.661 286.835 356.984 283.653C360.317 280.476 363.463 276.502 366.421 271.736C369.39 266.96 371.963 262.252 374.13 257.611Z" fill="#031925"/>
</svg>
