<svg width="694" height="908" viewBox="0 0 694 908" fill="none" xmlns="http://www.w3.org/2000/svg">
<mask id="mask0_34526_1711" style="mask-type:luminance" maskUnits="userSpaceOnUse" x="65" y="227" width="629" height="543">
<path d="M65.5264 227.653H693.974V769.601H65.5264V227.653Z" fill="white"/>
</mask>
<g mask="url(#mask0_34526_1711)">
<path d="M429.682 241.174C377.198 275.58 369.031 360.721 413.354 411.461C423.266 422.539 436.094 433.033 441.927 434.783C452.427 438.283 452.427 439.45 438.427 465.695C424.432 491.351 423.849 497.768 425.599 567.164C426.766 608.57 425.599 641.81 423.849 641.81C415.104 641.81 399.937 617.898 389.443 585.825C383.026 567.164 369.615 542.086 360.286 530.424C345.125 511.179 343.958 507.096 349.203 487.268C356.203 462.195 350.953 413.211 339.292 389.882C325.88 364.221 303.135 350.226 274.557 350.226C241.901 350.226 217.411 363.054 205.161 386.382C192.917 410.294 187.667 472.106 196.417 496.018C202.245 512.929 201.083 517.013 185.333 536.841C158.51 570.664 142.182 611.487 142.182 645.893L141.599 676.799H101.943C76.8645 676.799 63.4531 679.132 65.7864 682.627C67.5364 685.544 87.9479 688.466 110.693 688.466C142.766 688.466 154.427 690.794 166.089 700.122C174.255 706.539 184.75 711.789 189.417 711.789C195.833 711.789 197 715.872 194.667 726.367C192.917 734.533 189.417 747.945 187.667 756.106C183.589 771.273 184.167 771.851 200.5 766.606C209.828 763.69 231.406 761.945 248.318 762.523C264.646 763.106 289.141 763.69 301.969 763.69C314.797 763.69 339.292 763.106 356.203 762.523C372.531 761.945 394.109 763.69 403.437 766.606C418.021 771.273 419.766 770.106 416.854 760.773C415.104 754.356 411.604 740.95 409.854 730.45C405.771 711.789 406.354 711.205 417.437 717.039C436.677 727.533 447.76 724.617 458.255 705.961C465.839 691.961 472.255 688.466 487.417 688.466C504.323 688.466 506.073 689.627 500.245 699.544C485.667 726.95 503.745 758.445 534.068 758.445C561.479 758.445 639.625 723.455 653.62 705.372C660.615 694.877 671.115 688.466 679.276 688.466C686.859 688.466 692.687 685.544 692.687 682.627C692.687 679.132 687.443 676.799 681.609 676.799C671.115 676.799 670.526 670.971 668.198 584.658C666.448 497.768 665.865 491.351 650.12 459.278C634.958 428.955 622.708 415.539 576.052 379.966C562.646 370.054 561.479 364.804 561.479 325.731C560.896 294.242 558.557 277.914 550.979 266.252C525.318 227.763 467.589 215.513 429.682 241.174ZM520.656 252.252C544.562 270.914 553.312 297.742 549.229 335.648C545.151 366.554 545.729 368.304 564.396 383.466C647.786 453.445 657.698 475.606 657.698 595.153C657.698 696.044 653.031 704.789 588.302 730.45C527.068 754.356 499.078 747.362 508.411 710.039C511.323 698.372 518.323 693.127 542.234 685.544C591.219 669.799 599.385 656.971 599.385 595.153C599.385 566.58 597.047 541.502 593.552 539.752C590.052 537.424 587.719 556.086 587.719 591.075C587.719 635.976 585.969 647.06 577.802 654.638C561.479 668.049 536.401 676.799 514.823 676.799H494.411V592.825C494.411 542.669 492.078 507.096 488.583 504.763C485.083 502.434 482.75 532.174 482.75 588.742C482.75 673.299 482.167 676.799 471.089 676.799C464.089 676.799 453.594 671.549 447.177 665.721C435.516 655.221 434.932 649.388 437.26 567.747C439.01 482.606 439.594 480.273 455.339 459.278C475.75 432.45 493.245 430.705 498.495 455.195C500.245 464.528 504.911 472.69 508.99 472.69C514.823 472.69 515.406 468.023 510.74 452.862C504.911 434.2 505.495 431.283 522.99 417.289C532.901 408.544 541.062 398.044 541.062 393.382C541.062 381.132 535.234 383.466 521.818 400.377C515.406 409.127 501.995 419.039 492.078 423.122C408.687 458.112 356.786 297.742 435.516 249.341C458.255 235.341 500.828 236.507 520.656 252.252ZM313.047 376.471C352.12 409.711 349.786 507.679 308.385 535.091C257.062 569.497 202.828 530.424 202.828 459.862C202.828 424.289 213.328 391.632 229.073 375.888C248.901 356.06 288.557 356.643 313.047 376.471ZM365.531 561.33C375.448 580.575 383.609 601.57 383.609 607.403C383.609 613.815 399.359 634.226 418.599 652.888C437.844 672.132 453.594 690.211 453.594 693.127C453.594 696.044 449.51 701.872 444.844 705.961C432.599 715.872 409.271 704.211 399.359 683.216C395.276 674.466 384.193 665.132 371.948 661.638C349.786 654.054 350.953 656.388 345.703 610.903C343.375 592.825 339.292 577.658 335.792 577.658C330.542 577.658 332.292 615.565 338.708 649.388C340.458 657.554 297.302 669.799 290.891 663.388C287.974 660.471 271.646 657.554 254.151 656.971C210.995 655.804 207.495 652.304 217.995 623.148C222.073 610.32 226.156 594.57 226.156 588.158C226.156 568.33 215.661 582.325 208.078 612.648C201.661 638.31 199.333 641.226 187.083 638.31C160.844 631.31 174.839 645.31 211.578 661.638C231.99 670.382 250.068 682.049 251.818 686.716C256.479 697.794 245.401 717.617 234.323 717.617C218.578 717.617 168.422 688.466 158.51 673.882C142.766 649.971 160.26 585.242 192.333 546.169L206.328 529.841L228.49 545.002C242.484 554.336 259.396 560.164 271.646 560.164C292.052 560.164 331.125 540.919 331.125 530.424C331.125 527.507 334.625 525.174 339.292 525.174C343.958 525.174 355.62 541.502 365.531 561.33ZM278.057 671.549C296.135 677.966 296.135 678.549 296.135 717.617V757.856L278.057 751.445C268.146 747.945 247.151 746.778 230.823 748.528C203.411 752.028 202.245 751.445 203.995 739.2C205.161 730.45 209.245 726.95 217.411 727.533C254.151 732.2 276.307 706.539 258.812 679.716C248.318 663.388 251.234 662.221 278.057 671.549ZM369.031 670.971C385.359 676.799 391.776 689.627 398.193 727.533L402.271 752.028L373.115 748.528C356.786 746.778 335.792 747.945 325.88 751.445L307.802 757.856V717.617C307.802 679.716 308.385 677.382 324.13 672.132C345.125 663.971 350.953 663.971 369.031 670.971Z" fill="#FFFAF6"/>
</g>
<path d="M134.397 183.667L120.751 183.917H117.939C116.564 183.917 115.616 183.568 115.105 182.875C114.59 182.193 114.241 180.313 114.064 177.229C114.064 177.229 114.064 176.542 114.064 175.167C114.064 173.792 114.064 170.927 114.064 166.563C114.064 162.188 114.022 155.542 113.939 146.625C113.855 137.709 113.814 125.833 113.814 111C113.814 96.1668 113.814 77.6043 113.814 55.3127H77.793C76.0846 55.3127 75.1367 54.8022 74.9596 53.771C74.793 52.7293 74.6263 50.8439 74.4596 48.1043L73.168 7.7085V6.68766C73.168 5.146 73.5065 4.20329 74.1888 3.85433C74.8815 3.51058 76.0846 3.3335 77.793 3.3335C84.4857 3.3335 90.1471 3.38558 94.7721 3.47933C99.4076 3.56266 103.96 3.646 108.418 3.72933C112.876 3.81266 118.189 3.93766 124.355 4.10433C134.132 3.93766 144.033 3.771 154.064 3.60433C164.105 3.42725 174.095 3.3335 184.043 3.3335C185.928 3.3335 187.215 3.55225 187.897 3.97933C188.574 4.41162 188.835 5.65641 188.668 7.7085L187.376 48.1043C187.21 50.8439 187.033 52.7293 186.855 53.771C186.689 54.8022 185.751 55.3127 184.043 55.3127C182.319 54.9689 179.095 54.7502 174.376 54.6668C169.668 54.5731 164.569 54.521 159.085 54.521C153.595 54.521 149.824 54.5731 147.772 54.6668C145.715 54.7502 144.689 54.9689 144.689 55.3127C144.689 65.5939 144.637 77.8908 144.543 92.2085C144.46 106.531 144.418 121.063 144.418 135.813C144.418 143.188 144.418 150.396 144.418 157.438C144.418 164.469 144.507 171.063 144.689 177.229C144.507 180.313 144.158 182.193 143.647 182.875C143.132 183.568 142.105 183.917 140.564 183.917H138.001C136.97 183.917 136.194 183.875 135.668 183.792C135.152 183.709 134.73 183.667 134.397 183.667Z" fill="#FD6D5D"/>
<path d="M257.094 184.938C242.688 184.938 231.5 182.531 223.531 177.729C215.557 172.938 209.812 166.219 206.302 157.563C202.786 148.896 200.641 138.865 199.865 127.458C199.099 116.057 198.719 103.833 198.719 90.7918C198.719 76.5731 199.49 63.9325 201.031 52.8752C202.573 41.8075 205.396 32.4168 209.51 24.7085C213.62 16.9897 219.62 11.1147 227.51 7.0835C235.396 3.04183 245.688 1.021 258.385 1.021C266.271 1.021 273.391 2.05745 279.74 4.12516C286.083 6.18245 291.573 9.91162 296.198 15.3127C300.823 20.7033 304.375 28.3752 306.865 38.3335C309.349 48.2814 310.594 61.2241 310.594 77.1668C310.594 87.6252 309.646 95.3439 307.76 100.313C305.885 105.287 302.286 107.771 296.969 107.771C288.563 107.771 279.906 107.948 270.99 108.292C262.073 108.641 252.896 108.813 243.469 108.813C241.063 108.813 238.62 109.073 236.135 109.583C233.646 110.099 232.406 111.724 232.406 114.458C232.406 116.698 232.573 119.615 232.906 123.208C233.25 126.807 234.115 130.37 235.49 133.896C236.865 137.412 239.177 140.37 242.427 142.771C245.688 145.162 250.24 146.354 256.073 146.354C264.641 146.354 271.073 145.073 275.365 142.5C279.656 139.932 281.802 134.448 281.802 126.042C281.802 122.615 282.656 120.641 284.365 120.125C286.083 119.615 287.802 119.354 289.51 119.354H308.802C309.995 119.354 310.594 120.125 310.594 121.667V130.938C310.594 149.62 306.391 163.292 297.99 171.959C289.583 180.61 275.953 184.938 257.094 184.938ZM236.01 87.7085L277.677 86.1668C279.911 86.0002 281.286 85.2814 281.802 84.0002C282.313 82.7085 282.573 81.2033 282.573 79.4793V76.396C282.573 67.3127 281.495 60.7189 279.344 56.6043C277.203 52.4793 274.073 49.8231 269.948 48.6252C265.833 47.4168 260.698 46.8127 254.531 46.8127C249.208 46.8127 245.01 48.1877 241.927 50.9377C238.844 53.6772 236.573 57.0158 235.115 60.9585C233.656 64.9064 232.708 68.7241 232.281 72.4168C231.849 76.0991 231.635 78.9689 231.635 81.021V83.3335C231.635 85.0575 232.188 86.2189 233.302 86.8127C234.411 87.4116 235.313 87.7085 236.01 87.7085Z" fill="#F7BB4F"/>
<path d="M370.546 182.896C359.739 182.896 351.077 182.073 344.567 180.437C338.051 178.812 333.077 175.771 329.65 171.312C326.218 166.854 323.9 160.557 322.692 152.417C321.494 144.265 320.9 133.677 320.9 120.646C320.9 110.354 322.098 102.292 324.505 96.4582C326.906 90.6248 330.463 86.3853 335.171 83.729C339.89 81.0623 345.676 79.3488 352.525 78.5832C359.385 77.8071 367.192 77.4165 375.942 77.4165H388.546C391.296 77.4165 393.822 77.1613 396.13 76.6457C398.447 76.1353 399.609 74.5103 399.609 71.7707C399.609 69.3696 399.473 66.7082 399.213 63.7915C398.963 60.8748 398.109 58.0936 396.65 55.4373C395.192 52.7707 392.869 50.5415 389.692 48.7498C386.525 46.9478 381.942 46.0415 375.942 46.0415C374.744 46.0415 372.218 46.0832 368.359 46.1665C364.494 46.2498 360.119 46.3436 355.234 46.4373C350.343 46.5207 345.63 46.604 341.088 46.6873C336.546 46.7707 332.859 46.854 330.025 46.9373C327.192 47.0207 325.864 47.0623 326.046 47.0623C323.807 47.0623 322.609 46.4686 322.442 45.2707C322.275 44.078 322.098 41.2498 321.921 36.7915L321.15 9.52067C321.15 8.6613 321.109 7.8488 321.025 7.08317C320.942 6.30713 320.9 5.6613 320.9 5.14567C320.9 2.74463 322.098 1.5415 324.505 1.5415L375.421 5.39567C395.14 6.93734 409.676 15.1248 419.025 29.9582C428.369 44.7915 433.135 66.6196 433.317 95.4373L433.817 168.229C433.817 174.578 433.64 178.385 433.296 179.667C432.963 180.958 432.109 181.604 430.734 181.604L401.15 182.896H400.9C400.718 182.896 400.369 182.76 399.859 182.5C399.343 182.25 399.088 181.776 399.088 181.083V162.562C397.546 164.62 395.827 167.281 393.942 170.542C392.067 173.807 389.364 176.682 385.838 179.167C382.322 181.651 377.223 182.896 370.546 182.896ZM372.088 139.417C377.057 139.417 381.218 138.177 384.567 135.687C387.911 133.203 390.656 130.161 392.796 126.562C394.932 122.953 396.557 119.349 397.671 115.75C398.796 112.156 399.567 109.114 399.984 106.625C400.411 104.14 400.63 102.896 400.63 102.896C400.63 101.177 400.031 100.015 398.838 99.4165C397.64 98.8228 396.697 98.5207 396.005 98.5207H390.859C378.859 98.5207 370.156 99.078 364.755 100.187C359.348 101.302 355.921 103.015 354.463 105.333C353.005 107.656 352.275 110.786 352.275 114.729V121.667C352.275 127.323 353.176 131.396 354.984 133.896C356.786 136.385 359.234 137.927 362.317 138.521C365.4 139.12 368.656 139.417 372.088 139.417Z" fill="#2FB0F9"/>
<path d="M496.076 179.021C482.701 179.021 472.149 176.453 464.43 171.313C456.706 166.177 451.212 157.307 447.951 144.708C444.701 132.099 443.076 114.729 443.076 92.6042C443.076 79.7448 443.712 67.7448 444.993 56.6042C446.285 45.4531 448.602 35.6354 451.951 27.1458C455.295 18.6458 460.097 12 466.347 7.20833C472.607 2.40625 480.628 0 490.41 0C510.295 0 525.811 5.28125 536.951 15.8333C548.102 26.375 553.68 41.849 553.68 62.25C553.68 67.5729 553.597 70.8333 553.43 72.0417C553.264 73.2396 552.831 73.8333 552.139 73.8333C546.649 74.1667 542.41 74.5521 539.41 74.9792C536.41 75.4115 534.139 75.625 532.597 75.625C530.706 75.625 529.373 74.5156 528.597 72.2917C527.831 70.0573 526.764 67.9115 525.389 65.8542C522.982 62.2448 519.253 59.2448 514.201 56.8542C509.144 54.4531 503.524 53.25 497.347 53.25C488.43 53.25 482.123 54.6667 478.43 57.5C474.748 60.3229 472.519 65.1198 471.743 71.8958C470.977 78.6771 470.597 87.8906 470.597 99.5417C470.597 107.948 470.852 114.594 471.368 119.479C471.878 124.37 473.04 127.974 474.847 130.292C476.649 132.599 479.394 134.057 483.076 134.667C486.769 135.266 491.785 135.563 498.118 135.563C504.295 135.563 509.014 134.24 512.264 131.583C515.524 128.917 518.055 125.87 519.847 122.438C521.649 119.01 523.243 115.969 524.618 113.313C525.993 110.646 527.79 109.313 530.014 109.313H551.118C552.144 109.313 552.998 110.26 553.68 112.146C554.373 114.036 554.722 116.521 554.722 119.604C554.722 124.411 553.732 130.161 551.764 136.854C549.79 143.536 546.524 150.094 541.972 156.521C537.43 162.953 531.43 168.313 523.972 172.604C516.514 176.885 507.212 179.021 496.076 179.021Z" fill="#67C9A5"/>
<path d="M674.326 189.834H644.222C640.972 189.834 638.914 189.401 638.055 188.542C637.19 187.693 636.763 185.813 636.763 182.896V123.729C636.763 121.677 636.503 120.349 635.993 119.75C635.477 119.141 634.451 118.578 632.909 118.063C629.993 117.552 627.159 117.208 624.409 117.042C621.67 116.865 619.019 116.771 616.451 116.771C612.503 116.771 609.414 116.906 607.18 117.167C604.956 117.417 601.44 117.719 596.638 118.063C595.44 118.063 594.711 118.24 594.451 118.583C594.201 118.932 594.076 120.302 594.076 122.688V168.479C594.076 170.203 593.94 171.24 593.68 171.584C593.43 171.917 592.357 172.084 590.472 172.084H570.659C568.951 172.084 567.748 171.828 567.055 171.313C566.373 170.802 566.034 169.516 566.034 167.459C566.201 165.057 566.326 162.448 566.409 159.625C566.503 156.792 566.555 153.229 566.555 148.938C566.555 143.104 566.503 135.219 566.409 125.271C566.326 115.328 566.243 101.912 566.159 85.021C566.076 68.12 566.034 46.6408 566.034 20.5835V13.6252C566.034 10.8908 566.159 9.05225 566.409 8.10433C566.67 7.16162 567.659 6.68766 569.368 6.68766H588.409C590.295 6.68766 591.711 6.98975 592.659 7.5835C593.602 8.18245 594.076 10.1981 594.076 13.6252V79.2293C594.076 81.6356 594.201 83.0939 594.451 83.6043C594.711 84.12 595.44 84.3752 596.638 84.3752H626.743C627.602 84.3752 628.289 82.7502 628.805 79.5002C629.315 76.2397 629.743 72.0366 630.076 66.896C630.42 61.745 630.68 56.2085 630.847 50.2918C631.024 44.3752 631.118 38.6772 631.118 33.1877C631.118 27.521 631.065 22.5522 630.972 18.271C630.888 13.9793 630.763 11.2293 630.597 10.021C630.597 6.771 631.232 4.84912 632.513 4.25016C633.805 3.64079 635.909 3.3335 638.826 3.3335C641.909 3.51579 644.993 3.646 648.076 3.72933C651.17 3.81266 655.378 3.85433 660.701 3.85433C663.618 3.85433 666.269 3.81266 668.659 3.72933C671.06 3.646 673.378 3.51579 675.618 3.3335C678.534 3.3335 680.414 3.80745 681.263 4.75016C682.123 5.69808 682.555 7.88558 682.555 11.3127V182.896C682.555 186.146 681.909 188.11 680.618 188.792C679.336 189.485 677.243 189.834 674.326 189.834Z" fill="#FD6D5D"/>
<path d="M63.5403 371.049C57.608 371.049 51.7122 369.424 45.8528 366.174C40.0038 362.924 35.1965 358.658 31.4361 353.382C27.6705 348.101 25.7903 342.351 25.7903 336.132C25.7903 330.351 27.6288 325.471 31.3111 321.486C35.0038 317.513 39.7799 314.513 45.6445 312.486C51.5038 310.471 57.759 309.611 64.4153 309.903C67.733 309.611 70.8736 309.533 73.832 309.674C76.8007 309.825 79.4413 309.903 81.7486 309.903C84.6497 309.903 86.1028 308.45 86.1028 305.549C85.9465 300.497 85.6913 295.622 85.332 290.924C84.9674 286.216 84.4986 281.481 83.9153 276.716C83.7747 274.69 83.1965 273.57 82.1861 273.361C81.1705 273.143 80.0872 273.82 78.9361 275.403C75.8945 279.46 72.0611 283.08 67.4361 286.257C62.8111 289.44 57.9674 291.028 52.9153 291.028C46.5507 291.028 41.233 289.148 36.957 285.382C32.6913 281.622 29.4778 276.559 27.3111 270.195C25.1445 263.835 23.8424 256.82 23.4153 249.153C23.259 247.278 22.9674 246.309 22.5403 246.236C22.108 246.169 21.6028 247.002 21.0195 248.736C19.7278 252.059 18.608 254.841 17.6653 257.091C16.7174 259.33 15.6028 261.893 14.3111 264.778C13.1445 267.377 11.6236 269.044 9.74863 269.778C7.87363 270.502 6.03508 270.393 4.22779 269.445C2.41008 268.502 1.13925 266.981 0.415292 264.882C-0.303458 262.789 -0.0899156 260.361 1.06113 257.611C4.10279 250.528 6.56113 244.71 8.43613 240.153C10.3215 235.601 11.8788 231.549 13.1028 228.007C14.3372 224.466 15.4622 220.82 16.4778 217.07C17.1965 214.169 18.207 212.07 19.4986 210.778C20.8007 209.476 22.6132 208.82 24.9361 208.82C28.8372 208.82 31.8736 210.195 34.0403 212.945C36.207 215.695 37.2903 219.169 37.2903 223.361C37.2903 225.96 37.3215 228.705 37.3945 231.591C37.4778 234.481 37.5872 237.377 37.7278 240.278C38.0195 246.778 38.7747 252.669 39.9986 257.945C41.233 263.226 42.9674 267.455 45.207 270.632C47.457 273.815 50.2382 275.403 53.5611 275.403C56.6028 275.403 59.5663 274.289 62.457 272.049C65.3424 269.799 68.0507 266.981 70.582 263.591C73.108 260.19 75.2747 256.648 77.082 252.966C78.8997 249.273 80.1705 245.981 80.8945 243.091C81.1861 242.08 81.3632 241.21 81.4361 240.486C81.5038 239.768 81.5403 238.898 81.5403 237.882C81.5403 233.257 81.608 229.648 81.7486 227.049C81.8997 224.44 82.5507 221.611 83.707 218.57C84.7174 216.111 86.1653 214.601 88.0403 214.028C89.9257 213.445 91.5924 213.153 93.0403 213.153C95.3424 213.153 97.4361 214.169 99.3111 216.195C101.197 218.226 102.144 220.611 102.144 223.361C102.144 225.96 101.78 228.273 101.061 230.299C100.337 232.315 99.6132 234.414 98.8945 236.591C98.1705 238.757 97.8111 241.502 97.8111 244.82C97.8111 246.851 97.9465 248.841 98.2278 250.799C98.5195 252.747 98.7382 254.731 98.8945 256.757C99.7538 264.705 100.546 271.789 101.269 278.007C101.988 284.231 102.353 290.809 102.353 297.736C102.353 299.476 102.858 300.669 103.874 301.32C104.884 301.976 106.113 301.872 107.561 301.007C113.78 297.382 118.988 293.044 123.186 287.986C127.379 282.934 130.921 277.695 133.811 272.278C136.697 266.851 139.155 261.96 141.186 257.611C142.197 255.445 143.676 254.111 145.624 253.611C147.582 253.101 149.462 253.247 151.269 254.049C153.072 254.841 154.405 256.184 155.269 258.07C156.144 259.945 156.004 262.184 154.853 264.778C148.78 278.518 142.092 289.757 134.79 298.507C127.483 307.257 117.9 314.304 106.04 319.653C103.874 320.513 102.504 322.825 101.936 326.591C99.4778 340.757 94.6965 351.705 87.6028 359.445C80.5195 367.179 72.4986 371.049 63.5403 371.049ZM65.0611 354.57C68.5299 354.57 71.5663 353.195 74.1653 350.445C76.759 347.705 78.9257 344.455 80.6653 340.695C82.3997 336.929 83.5611 333.455 84.1445 330.278C84.8632 327.247 83.4882 325.736 80.0195 325.736C72.6445 325.736 66.1028 325.914 60.3945 326.278C54.6861 326.638 50.1965 327.611 46.9361 329.195C43.6861 330.789 42.0611 333.393 42.0611 337.007C42.0611 340.325 43.4361 343.325 46.1861 346.007C48.9361 348.684 52.1132 350.783 55.7278 352.299C59.3372 353.809 62.4465 354.57 65.0611 354.57Z" fill="#FFFAF6"/>
<path d="M245.729 257.612C246.88 255.31 248.437 253.903 250.396 253.403C252.354 252.893 254.234 253.07 256.041 253.945C257.843 254.81 259.146 256.185 259.937 258.07C260.729 259.945 260.547 262.185 259.396 264.778C257.364 269.403 254.218 274.028 249.958 278.653C245.692 283.278 240.484 287.007 234.333 289.841C228.192 292.664 221.151 293.851 213.208 293.403C211.026 293.268 209.213 294.065 207.771 295.799C204.588 299.841 200.609 303.018 195.833 305.32C191.067 307.638 185.291 308.799 178.5 308.799C170.692 308.799 164.151 306.888 158.875 303.07C153.593 299.237 149.583 294.07 146.833 287.57C144.083 281.06 142.708 273.82 142.708 265.862C142.708 259.794 143.656 253.757 145.541 247.757C147.416 241.757 150.125 236.377 153.666 231.612C157.208 226.836 161.437 223.289 166.354 220.966C167.364 220.539 168.192 220.106 168.833 219.674C169.484 219.231 170.25 218.726 171.125 218.153C175.026 215.403 179.505 214.028 184.562 214.028C191.364 214.028 197.333 216.018 202.458 219.987C207.593 223.961 211.646 229.023 214.604 235.174C217.573 241.315 219.062 247.565 219.062 253.924C219.062 257.122 218.916 260.31 218.625 263.487C218.333 266.669 217.896 269.851 217.312 273.028C217.031 274.476 217.396 275.669 218.396 276.612C219.406 277.544 220.927 277.794 222.958 277.362C228.885 276.351 233.625 273.82 237.166 269.778C240.708 265.726 243.562 261.669 245.729 257.612ZM196.5 272.799C197.802 273.674 199 273.862 200.083 273.362C201.166 272.851 201.854 271.872 202.146 270.424C202.573 268.106 202.927 265.757 203.208 263.382C203.5 260.997 203.646 258.497 203.646 255.882C203.646 251.981 202.812 247.976 201.146 243.862C199.489 239.737 197.218 236.299 194.333 233.549C191.442 230.799 188.114 229.424 184.354 229.424C184.354 229.424 184.276 229.424 184.125 229.424C183.984 229.424 183.406 229.752 182.396 230.403C181.38 231.06 180.51 231.893 179.791 232.903C179.5 233.336 178.989 233.914 178.271 234.632C177.547 235.356 176.896 236.007 176.312 236.591C175.739 237.164 175.312 238.028 175.021 239.195C174.729 240.351 174.583 241.289 174.583 242.007C174.583 245.622 175.812 249.455 178.271 253.507C180.729 257.549 183.656 261.31 187.062 264.778C190.463 268.252 193.609 270.924 196.5 272.799ZM158.104 266.299C158.104 271.648 159.187 276.382 161.354 280.507C163.521 284.632 166.302 287.893 169.708 290.278C173.109 292.653 176.614 293.841 180.229 293.841C183.271 293.841 185.942 293.19 188.25 291.882C189.843 291.023 190.567 289.981 190.416 288.757C190.276 287.523 189.484 286.466 188.041 285.591C183.26 282.414 178.739 278.549 174.479 274.007C170.213 269.455 166.562 264.497 163.521 259.132C162.521 257.549 161.51 256.872 160.5 257.091C159.484 257.299 158.833 258.419 158.541 260.445C158.401 261.461 158.291 262.44 158.208 263.382C158.135 264.315 158.104 265.289 158.104 266.299Z" fill="#FFFAF6"/>
<path d="M374.13 257.611C375.432 255.018 377.025 253.502 378.9 253.07C380.786 252.643 382.598 252.966 384.338 254.049C386.072 255.132 387.338 256.653 388.13 258.611C388.921 260.559 388.807 262.611 387.796 264.778C384.322 272.294 380.38 279.091 375.963 285.174C371.557 291.247 366.786 296.085 361.65 299.695C356.525 303.309 351.14 305.111 345.505 305.111C340.296 305.111 335.593 303.455 331.4 300.132C327.218 296.815 323.755 292.622 321.005 287.549C319.406 284.523 317.593 284.523 315.567 287.549C310.51 295.507 305.525 300.934 300.609 303.82C295.692 306.705 291.213 308.153 287.171 308.153C280.656 308.153 275.593 306.492 271.984 303.174C268.369 299.841 265.838 295.398 264.38 289.841C262.932 284.273 262.213 278.164 262.213 271.507C262.213 271.216 262.213 270.893 262.213 270.528C262.213 270.169 262.213 269.841 262.213 269.549C262.213 267.382 262.031 265.216 261.671 263.049C261.307 260.882 260.984 260.164 260.692 260.882C260.411 261.455 260.13 262.065 259.838 262.716C259.546 263.372 259.255 264.059 258.963 264.778C257.515 267.82 255.781 269.669 253.755 270.32C251.744 270.96 249.869 270.736 248.13 269.653C246.395 268.57 245.234 266.945 244.65 264.778C244.067 262.611 244.432 260.226 245.734 257.611C250.359 248.794 253.64 242.252 255.588 237.986C257.546 233.726 258.963 230.653 259.838 228.778C261.713 224.434 264.275 221.861 267.525 221.07C270.786 220.278 273.65 221.226 276.109 223.903C278.567 226.57 279.359 231.018 278.484 237.236C278.343 238.252 278.234 239.122 278.15 239.841C278.077 240.565 278.046 241.434 278.046 242.445C277.906 245.768 277.723 249.486 277.505 253.611C277.296 257.736 277.192 262.039 277.192 266.507C277.192 271.289 277.406 275.705 277.838 279.757C278.265 283.799 279.202 287.049 280.65 289.507C282.093 291.966 284.265 293.195 287.171 293.195C290.489 293.195 293.661 291.898 296.692 289.299C299.734 286.69 302.515 283.434 305.046 279.528C307.588 275.627 309.76 271.653 311.567 267.611C313.369 263.559 314.702 260.007 315.567 256.966C316.01 254.94 316.234 253.205 316.234 251.757C316.369 245.981 316.723 240.382 317.296 234.966C317.88 229.539 319.072 225.049 320.88 221.507C322.697 217.966 325.411 216.195 329.025 216.195C331.327 216.195 333.385 216.919 335.192 218.361C337.01 219.809 338.202 222.414 338.775 226.174C339.494 229.648 339.348 233.731 338.338 238.424C337.338 243.122 335.609 247.856 333.15 252.632C332.702 253.497 332.338 254.294 332.046 255.028C331.765 255.752 331.551 256.611 331.4 257.611C330.968 261.528 331.364 265.877 332.588 270.653C333.822 275.419 335.671 279.57 338.13 283.111C340.588 286.653 343.406 288.424 346.588 288.424C350.197 288.424 353.661 286.835 356.984 283.653C360.317 280.476 363.463 276.502 366.421 271.736C369.39 266.96 371.963 262.252 374.13 257.611Z" fill="#FFFAF6"/>
<path d="M44.6081 818.521V826.354H23.8372V835.896H48.0039V844.146H13.8164V801.646H47.3997V809.896H23.8372V818.521H44.6081Z" fill="#FFFAF6"/>
<path d="M61.7259 830.354C61.7259 831.01 61.8197 831.729 62.0176 832.521C62.2259 833.312 62.6426 834.042 63.2676 834.708C63.8926 835.375 64.7572 835.948 65.8717 836.417C66.9967 836.875 68.4447 837.104 70.2259 837.104C71.153 837.104 72.0697 837.057 72.9759 836.958C73.8926 836.849 74.7051 836.635 75.4134 836.312C76.1217 835.995 76.6947 835.552 77.1426 834.979C77.5853 834.411 77.8092 833.661 77.8092 832.729C77.8092 831.594 77.4811 830.661 76.8301 829.937C76.1895 829.203 75.3509 828.604 74.3092 828.146C73.278 827.677 72.127 827.292 70.8509 827C69.5853 826.698 68.2988 826.396 66.9967 826.104C65.0905 825.703 63.2936 825.229 61.6009 824.687C59.903 824.135 58.4186 823.39 57.1426 822.458C55.8613 821.531 54.8509 820.323 54.1009 818.833C53.3509 817.333 52.9759 815.39 52.9759 813C52.9759 811.292 53.278 809.677 53.8926 808.146C54.502 806.604 55.4967 805.265 56.8717 804.125C58.2467 802.989 60.0436 802.083 62.2676 801.417C64.4863 800.75 67.2051 800.417 70.4134 800.417C73.3561 800.417 75.8405 800.807 77.8717 801.583C79.8978 802.349 81.5488 803.344 82.8301 804.562C84.1061 805.771 85.0384 807.146 85.6217 808.687C86.2051 810.219 86.5176 811.75 86.5592 813.292H77.0801C76.9967 812.724 76.8353 812.161 76.6009 811.604C76.3613 811.036 75.9603 810.542 75.3926 810.125C74.8197 809.698 74.0801 809.349 73.1634 809.083C72.2572 808.823 71.1426 808.687 69.8092 808.687C68.5436 808.687 67.4967 808.802 66.6634 809.021C65.8405 809.245 65.1738 809.552 64.6634 809.937C64.1634 810.312 63.7988 810.745 63.5801 811.229C63.3561 811.719 63.2467 812.224 63.2467 812.75C63.2467 813.682 63.502 814.448 64.0176 815.042C64.5436 815.625 65.2259 816.114 66.0592 816.5C66.8926 816.875 67.7936 817.177 68.7676 817.396C69.7363 817.62 70.6895 817.812 71.6217 817.979C73.8405 818.427 75.9551 818.917 77.9551 819.458C79.9655 820 81.7259 820.76 83.2259 821.729C84.7259 822.703 85.903 823.953 86.7676 825.479C87.6426 826.995 88.0801 828.906 88.0801 831.208C88.0801 831.781 88.0228 832.531 87.9134 833.458C87.8145 834.39 87.5697 835.385 87.1842 836.437C86.8092 837.495 86.2311 838.552 85.4551 839.604C84.6895 840.646 83.6426 841.599 82.3092 842.458C80.9759 843.307 79.3145 844 77.3301 844.542C75.3405 845.083 72.9342 845.354 70.1009 845.354C66.1686 845.354 62.9967 844.838 60.5801 843.812C58.1738 842.786 56.3092 841.515 54.9759 840C53.6426 838.474 52.7363 836.844 52.2676 835.104C51.8092 833.354 51.5801 831.771 51.5801 830.354H61.7259Z" fill="#FFFAF6"/>
<path d="M91.1152 809.896V801.646H126.824V809.896H114.011V844.146H103.99V809.896H91.1152Z" fill="#FFFAF6"/>
<path d="M141.692 801.646V826.416C141.692 829.932 142.306 832.593 143.546 834.396C144.78 836.203 146.963 837.104 150.088 837.104C153.155 837.104 155.317 836.244 156.567 834.521C157.827 832.802 158.463 830.099 158.463 826.416V801.646H168.483V828.062C168.483 828.786 168.442 829.718 168.358 830.854C168.275 831.979 168.035 833.182 167.65 834.458C167.275 835.739 166.697 837.021 165.921 838.312C165.155 839.604 164.093 840.781 162.733 841.833C161.384 842.89 159.676 843.739 157.608 844.375C155.535 845.026 153.03 845.354 150.088 845.354C147.088 845.354 144.551 845.026 142.483 844.375C140.426 843.739 138.718 842.911 137.358 841.896C135.994 840.885 134.931 839.729 134.171 838.437C133.405 837.146 132.838 835.864 132.463 834.583C132.098 833.307 131.879 832.093 131.796 830.937C131.713 829.786 131.671 828.828 131.671 828.062V801.646H141.692Z" fill="#FFFAF6"/>
<path d="M187.313 835.896H193.688C197.604 835.896 200.532 834.854 202.479 832.771C204.422 830.677 205.396 827.427 205.396 823.021C205.396 820.062 205.006 817.724 204.229 816C203.464 814.281 202.526 812.968 201.417 812.062C200.302 811.146 199.104 810.557 197.813 810.291C196.521 810.031 195.344 809.896 194.292 809.896H187.313V835.896ZM195.563 801.646C196.256 801.646 197.235 801.687 198.5 801.771C199.776 801.843 201.188 802.093 202.729 802.521C204.271 802.937 205.839 803.583 207.438 804.458C209.032 805.333 210.479 806.562 211.771 808.146C213.073 809.718 214.136 811.698 214.959 814.083C215.792 816.474 216.209 819.39 216.209 822.833C216.209 826.198 215.834 829.052 215.084 831.396C214.334 833.744 213.344 835.708 212.125 837.291C210.917 838.864 209.542 840.104 208 841.021C206.469 841.927 204.907 842.614 203.313 843.083C201.714 843.557 200.151 843.854 198.625 843.979C197.11 844.093 195.782 844.146 194.646 844.146H177.292V801.646H195.563Z" fill="#FFFAF6"/>
<path d="M233.526 801.646V844.146H223.505V801.646H233.526Z" fill="#FFFAF6"/>
<path d="M264.252 828.958L258.772 812.75L253.189 828.958H264.252ZM263.814 801.646L279.793 844.146H269.168L266.439 836.187H251.002L248.335 844.146H237.772L253.668 801.646H263.814Z" fill="#FFFAF6"/>
<path d="M293.766 817.541V844.146H283.745V801.646H293.87L310.641 828.062H310.828V801.646H320.849V844.146H310.641L293.87 817.541H293.766Z" fill="#FFFAF6"/>
<path d="M340.222 835.896H346.597C350.514 835.896 353.441 834.854 355.389 832.771C357.331 830.677 358.305 827.427 358.305 823.021C358.305 820.062 357.915 817.724 357.139 816C356.373 814.281 355.436 812.968 354.326 812.062C353.212 811.146 352.014 810.557 350.722 810.291C349.43 810.031 348.253 809.896 347.201 809.896H340.222V835.896ZM348.472 801.646C349.165 801.646 350.144 801.687 351.41 801.771C352.686 801.843 354.097 802.093 355.639 802.521C357.18 802.937 358.748 803.583 360.347 804.458C361.941 805.333 363.389 806.562 364.68 808.146C365.982 809.718 367.045 811.698 367.868 814.083C368.701 816.474 369.118 819.39 369.118 822.833C369.118 826.198 368.743 829.052 367.993 831.396C367.243 833.744 366.253 835.708 365.035 837.291C363.826 838.864 362.451 840.104 360.91 841.021C359.378 841.927 357.816 842.614 356.222 843.083C354.623 843.557 353.061 843.854 351.535 843.979C350.019 844.093 348.691 844.146 347.555 844.146H330.201V801.646H348.472Z" fill="#FFFAF6"/>
<path d="M395.893 837.104C397.601 837.104 399.049 836.844 400.247 836.312C401.439 835.786 402.424 835.094 403.205 834.229C403.997 833.354 404.611 832.39 405.059 831.333C405.518 830.281 405.856 829.229 406.08 828.187C406.299 827.135 406.439 826.14 406.497 825.208C406.549 824.265 406.58 823.495 406.58 822.896C406.58 822.245 406.549 821.448 406.497 820.5C406.439 819.542 406.299 818.542 406.08 817.5C405.856 816.448 405.518 815.39 405.059 814.333C404.611 813.281 403.997 812.333 403.205 811.5C402.424 810.667 401.439 809.995 400.247 809.479C399.049 808.953 397.601 808.687 395.893 808.687C394.518 808.687 393.189 808.906 391.913 809.333C390.648 809.75 389.518 810.495 388.518 811.562C387.528 812.635 386.736 814.094 386.143 815.937C385.559 817.786 385.268 820.104 385.268 822.896C385.268 825.687 385.559 827.995 386.143 829.812C386.736 831.635 387.528 833.083 388.518 834.167C389.518 835.239 390.648 835.995 391.913 836.437C393.189 836.885 394.518 837.104 395.893 837.104ZM395.893 845.354C391.684 845.354 388.205 844.646 385.455 843.229C382.705 841.812 380.507 840.015 378.872 837.833C377.231 835.64 376.07 833.224 375.393 830.583C374.726 827.932 374.393 825.37 374.393 822.896C374.393 820.427 374.726 817.864 375.393 815.208C376.07 812.557 377.231 810.14 378.872 807.958C380.507 805.765 382.705 803.958 385.455 802.542C388.205 801.125 391.684 800.417 395.893 800.417C399.544 800.417 402.726 800.989 405.434 802.125C408.143 803.25 410.377 804.823 412.143 806.833C413.903 808.833 415.215 811.208 416.08 813.958C416.955 816.708 417.393 819.687 417.393 822.896C417.393 826.135 416.955 829.12 416.08 831.854C415.215 834.578 413.903 836.948 412.143 838.958C410.377 840.958 408.143 842.531 405.434 843.667C402.726 844.792 399.544 845.354 395.893 845.354Z" fill="#FFFAF6"/>
<path d="M435.861 828.479H445.882V830.187C445.882 832.453 446.257 834.177 447.007 835.354C447.757 836.521 449.101 837.104 451.049 837.104C452.976 837.104 454.236 836.5 454.82 835.291C455.413 834.073 455.715 832.369 455.715 830.187V801.646H465.736V828.791C465.736 832.432 465.288 835.349 464.403 837.541C463.512 839.724 462.367 841.39 460.965 842.541C459.575 843.698 458.007 844.448 456.257 844.812C454.518 845.172 452.799 845.354 451.09 845.354C447.809 845.354 445.174 844.854 443.174 843.854C441.174 842.843 439.622 841.604 438.528 840.146C437.429 838.687 436.705 837.14 436.361 835.5C436.028 833.864 435.861 832.411 435.861 831.146V828.479Z" fill="#FFFAF6"/>
<path d="M484.005 801.646V826.416C484.005 829.932 484.62 832.593 485.859 834.396C487.094 836.203 489.276 837.104 492.401 837.104C495.469 837.104 497.63 836.244 498.88 834.521C500.141 832.802 500.776 830.099 500.776 826.416V801.646H510.797V828.062C510.797 828.786 510.755 829.718 510.672 830.854C510.589 831.979 510.349 833.182 509.964 834.458C509.589 835.739 509.01 837.021 508.234 838.312C507.469 839.604 506.406 840.781 505.047 841.833C503.698 842.89 501.99 843.739 499.922 844.375C497.849 845.026 495.344 845.354 492.401 845.354C489.401 845.354 486.865 845.026 484.797 844.375C482.74 843.739 481.031 842.911 479.672 841.896C478.307 840.885 477.245 839.729 476.484 838.437C475.719 837.146 475.151 835.864 474.776 834.583C474.411 833.307 474.193 832.093 474.109 830.937C474.026 829.786 473.984 828.828 473.984 828.062V801.646H484.005Z" fill="#FFFAF6"/>
<path d="M529.626 817.541V844.146H519.605V801.646H529.73L546.501 828.062H546.689V801.646H556.71V844.146H546.501L529.73 817.541H529.626Z" fill="#FFFAF6"/>
<path d="M562.291 809.896V801.646H597.999V809.896H585.187V844.146H575.166V809.896H562.291Z" fill="#FFFAF6"/>
<path d="M622.888 837.104C624.596 837.104 626.044 836.844 627.242 836.312C628.435 835.786 629.419 835.094 630.2 834.229C630.992 833.354 631.606 832.39 632.054 831.333C632.513 830.281 632.851 829.229 633.075 828.187C633.294 827.135 633.435 826.14 633.492 825.208C633.544 824.265 633.575 823.495 633.575 822.896C633.575 822.245 633.544 821.448 633.492 820.5C633.435 819.542 633.294 818.542 633.075 817.5C632.851 816.448 632.513 815.39 632.054 814.333C631.606 813.281 630.992 812.333 630.2 811.5C629.419 810.667 628.435 809.995 627.242 809.479C626.044 808.953 624.596 808.687 622.888 808.687C621.513 808.687 620.185 808.906 618.909 809.333C617.643 809.75 616.513 810.495 615.513 811.562C614.523 812.635 613.731 814.094 613.138 815.937C612.554 817.786 612.263 820.104 612.263 822.896C612.263 825.687 612.554 827.995 613.138 829.812C613.731 831.635 614.523 833.083 615.513 834.167C616.513 835.239 617.643 835.995 618.909 836.437C620.185 836.885 621.513 837.104 622.888 837.104ZM622.888 845.354C618.679 845.354 615.2 844.646 612.45 843.229C609.7 841.812 607.502 840.015 605.867 837.833C604.226 835.64 603.065 833.224 602.388 830.583C601.721 827.932 601.388 825.37 601.388 822.896C601.388 820.427 601.721 817.864 602.388 815.208C603.065 812.557 604.226 810.14 605.867 807.958C607.502 805.765 609.7 803.958 612.45 802.542C615.2 801.125 618.679 800.417 622.888 800.417C626.539 800.417 629.721 800.989 632.429 802.125C635.138 803.25 637.372 804.823 639.138 806.833C640.898 808.833 642.211 811.208 643.075 813.958C643.95 816.708 644.388 819.687 644.388 822.896C644.388 826.135 643.95 829.12 643.075 831.854C642.211 834.578 640.898 836.948 639.138 838.958C637.372 840.958 635.138 842.531 632.429 843.667C629.721 844.792 626.539 845.354 622.888 845.354Z" fill="#FFFAF6"/>
<path d="M659.394 830.354C659.394 831.01 659.488 831.729 659.686 832.521C659.894 833.312 660.311 834.042 660.936 834.708C661.561 835.375 662.425 835.948 663.54 836.417C664.665 836.875 666.113 837.104 667.894 837.104C668.821 837.104 669.738 837.057 670.644 836.958C671.561 836.849 672.373 836.635 673.081 836.312C673.79 835.995 674.363 835.552 674.811 834.979C675.253 834.411 675.477 833.661 675.477 832.729C675.477 831.594 675.149 830.661 674.498 829.937C673.857 829.203 673.019 828.604 671.977 828.146C670.946 827.677 669.795 827.292 668.519 827C667.253 826.698 665.967 826.396 664.665 826.104C662.758 825.703 660.962 825.229 659.269 824.687C657.571 824.135 656.087 823.39 654.811 822.458C653.529 821.531 652.519 820.323 651.769 818.833C651.019 817.333 650.644 815.39 650.644 813C650.644 811.292 650.946 809.677 651.561 808.146C652.17 806.604 653.165 805.265 654.54 804.125C655.915 802.989 657.712 802.083 659.936 801.417C662.154 800.75 664.873 800.417 668.081 800.417C671.024 800.417 673.508 800.807 675.54 801.583C677.566 802.349 679.217 803.344 680.498 804.562C681.774 805.771 682.706 807.146 683.29 808.687C683.873 810.219 684.186 811.75 684.227 813.292H674.748C674.665 812.724 674.503 812.161 674.269 811.604C674.029 811.036 673.628 810.542 673.061 810.125C672.488 809.698 671.748 809.349 670.831 809.083C669.925 808.823 668.811 808.687 667.477 808.687C666.212 808.687 665.165 808.802 664.331 809.021C663.508 809.245 662.842 809.552 662.331 809.937C661.831 810.312 661.467 810.745 661.248 811.229C661.024 811.719 660.915 812.224 660.915 812.75C660.915 813.682 661.17 814.448 661.686 815.042C662.212 815.625 662.894 816.114 663.727 816.5C664.561 816.875 665.462 817.177 666.436 817.396C667.404 817.62 668.357 817.812 669.29 817.979C671.508 818.427 673.623 818.917 675.623 819.458C677.633 820 679.394 820.76 680.894 821.729C682.394 822.703 683.571 823.953 684.436 825.479C685.311 826.995 685.748 828.906 685.748 831.208C685.748 831.781 685.691 832.531 685.581 833.458C685.482 834.39 685.238 835.385 684.852 836.437C684.477 837.495 683.899 838.552 683.123 839.604C682.357 840.646 681.311 841.599 679.977 842.458C678.644 843.307 676.982 844 674.998 844.542C673.008 845.083 670.602 845.354 667.769 845.354C663.837 845.354 660.665 844.838 658.248 843.812C655.842 842.786 653.977 841.515 652.644 840C651.311 838.474 650.404 836.844 649.936 835.104C649.477 833.354 649.248 831.771 649.248 830.354H659.394Z" fill="#FFFAF6"/>
<path d="M31.4049 890.777L25.9258 874.569L20.3424 890.777H31.4049ZM30.9674 863.465L46.9466 905.965H36.3216L33.5924 898.007H18.1549L15.4883 905.965H4.92578L20.8216 863.465H30.9674Z" fill="#FFFAF6"/>
<path d="M60.9193 883.069H68.7526C71.138 883.069 72.9297 882.621 74.1276 881.715C75.3203 880.798 75.9193 879.309 75.9193 877.236C75.9193 875.777 75.6536 874.673 75.1276 873.923C74.5964 873.173 73.9453 872.642 73.1693 872.319C72.4036 872.001 71.612 871.819 70.7943 871.777C69.987 871.736 69.3047 871.715 68.7526 871.715H60.9193V883.069ZM70.6901 863.465C72.8255 863.465 74.8672 863.689 76.8151 864.132C78.7578 864.579 80.4609 865.329 81.9193 866.382C83.3776 867.423 84.5339 868.829 85.3984 870.59C86.2734 872.355 86.7109 874.548 86.7109 877.173C86.7109 879.413 86.4245 881.309 85.8568 882.861C85.2995 884.418 84.5651 885.725 83.6484 886.777C82.7422 887.835 81.7005 888.668 80.5234 889.277C79.3568 889.876 78.1589 890.329 76.9401 890.632C75.7318 890.939 74.5547 891.132 73.4193 891.215C72.2786 891.288 71.2839 891.319 70.4401 891.319H60.9193V905.965H50.8984V863.465H70.6901Z" fill="#FFFAF6"/>
<path d="M103.002 882.527H112.169C113.586 882.527 114.716 882.35 115.565 881.986C116.409 881.611 117.054 881.152 117.502 880.611C117.945 880.069 118.237 879.496 118.377 878.882C118.528 878.272 118.606 877.704 118.606 877.173C118.606 875.079 118.013 873.647 116.836 872.882C115.669 872.105 113.987 871.715 111.794 871.715H103.002V882.527ZM92.9814 863.465H114.711C115.445 863.465 116.304 863.507 117.294 863.59C118.278 863.663 119.304 863.84 120.377 864.132C121.461 864.413 122.528 864.829 123.586 865.382C124.638 865.923 125.575 866.642 126.398 867.527C127.231 868.418 127.898 869.522 128.398 870.84C128.909 872.147 129.169 873.715 129.169 875.548C129.169 877.329 128.909 878.85 128.398 880.111C127.898 881.361 127.273 882.392 126.523 883.194C125.773 884.001 124.961 884.642 124.086 885.111C123.221 885.569 122.445 885.923 121.752 886.173V886.298C123.211 886.746 124.341 887.382 125.148 888.215C125.966 889.038 126.575 889.944 126.981 890.944C127.382 891.934 127.627 892.934 127.711 893.944C127.794 894.96 127.836 895.85 127.836 896.611C127.877 897.944 127.903 899.09 127.919 900.048C127.945 900.996 128.007 901.814 128.106 902.507C128.2 903.189 128.362 903.809 128.586 904.361C128.804 904.902 129.106 905.439 129.481 905.965H119.273C118.825 905.314 118.513 904.689 118.336 904.09C118.153 903.48 118.028 902.777 117.961 901.986C117.903 901.194 117.856 900.267 117.815 899.194C117.773 898.126 117.69 896.777 117.565 895.152C117.44 893.902 117.07 892.944 116.461 892.277C115.862 891.611 115.174 891.126 114.398 890.819C113.632 890.517 112.898 890.355 112.19 890.34C111.481 890.314 110.987 890.298 110.711 890.298H103.002V905.965H92.9814V863.465Z" fill="#FFFAF6"/>
<path d="M167.375 880.34V888.173H146.604V897.715H170.771V905.965H136.583V863.465H170.166V871.715H146.604V880.34H167.375Z" fill="#FFFAF6"/>
<path d="M186.805 879.361V905.965H176.784V863.465H186.909L203.68 889.882H203.868V863.465H213.888V905.965H203.68L186.909 879.361H186.805Z" fill="#FFFAF6"/>
<path d="M233.26 897.715H239.635C243.552 897.715 246.479 896.673 248.427 894.59C250.369 892.496 251.343 889.246 251.343 884.84C251.343 881.882 250.953 879.543 250.177 877.819C249.411 876.1 248.474 874.788 247.364 873.882C246.25 872.965 245.052 872.376 243.76 872.111C242.468 871.85 241.291 871.715 240.239 871.715H233.26V897.715ZM241.51 863.465C242.203 863.465 243.182 863.507 244.448 863.59C245.724 863.663 247.135 863.913 248.677 864.34C250.218 864.757 251.786 865.402 253.385 866.277C254.979 867.152 256.427 868.382 257.718 869.965C259.021 871.538 260.083 873.517 260.906 875.902C261.739 878.293 262.156 881.21 262.156 884.652C262.156 888.017 261.781 890.871 261.031 893.215C260.281 895.564 259.291 897.527 258.073 899.111C256.864 900.684 255.489 901.923 253.948 902.84C252.416 903.746 250.854 904.434 249.26 904.902C247.661 905.376 246.099 905.673 244.573 905.798C243.057 905.913 241.729 905.965 240.593 905.965H223.239V863.465H241.51Z" fill="#FFFAF6"/>
<path d="M300.244 880.34V888.173H279.473V897.715H303.64V905.965H269.452V863.465H303.035V871.715H279.473V880.34H300.244Z" fill="#FFFAF6"/>
<path d="M319.841 875.611H319.674V905.965H309.653V863.465H323.737L333.882 892.673L344.028 863.465H358.112V905.965H348.091V875.611H347.903L337.278 905.965H330.466L319.841 875.611Z" fill="#FFFAF6"/>
<path d="M386.943 898.923C388.652 898.923 390.1 898.663 391.298 898.132C392.49 897.606 393.475 896.913 394.256 896.048C395.048 895.173 395.662 894.21 396.11 893.153C396.568 892.1 396.907 891.048 397.131 890.007C397.35 888.955 397.49 887.96 397.548 887.028C397.6 886.085 397.631 885.314 397.631 884.715C397.631 884.064 397.6 883.267 397.548 882.319C397.49 881.361 397.35 880.361 397.131 879.319C396.907 878.267 396.568 877.21 396.11 876.153C395.662 875.1 395.048 874.153 394.256 873.319C393.475 872.486 392.49 871.814 391.298 871.298C390.1 870.772 388.652 870.507 386.943 870.507C385.568 870.507 384.24 870.725 382.964 871.153C381.699 871.569 380.568 872.314 379.568 873.382C378.579 874.455 377.787 875.913 377.193 877.757C376.61 879.606 376.318 881.923 376.318 884.715C376.318 887.507 376.61 889.814 377.193 891.632C377.787 893.455 378.579 894.903 379.568 895.986C380.568 897.059 381.699 897.814 382.964 898.257C384.24 898.705 385.568 898.923 386.943 898.923ZM386.943 907.173C382.735 907.173 379.256 906.465 376.506 905.048C373.756 903.632 371.558 901.835 369.923 899.653C368.282 897.46 367.12 895.043 366.443 892.403C365.777 889.751 365.443 887.189 365.443 884.715C365.443 882.246 365.777 879.684 366.443 877.028C367.12 874.376 368.282 871.96 369.923 869.778C371.558 867.585 373.756 865.778 376.506 864.361C379.256 862.944 382.735 862.236 386.943 862.236C390.594 862.236 393.777 862.809 396.485 863.944C399.193 865.069 401.428 866.642 403.193 868.653C404.954 870.653 406.266 873.028 407.131 875.778C408.006 878.528 408.443 881.507 408.443 884.715C408.443 887.955 408.006 890.939 407.131 893.673C406.266 896.397 404.954 898.767 403.193 900.778C401.428 902.778 399.193 904.35 396.485 905.486C393.777 906.611 390.594 907.173 386.943 907.173Z" fill="#FFFAF6"/>
<path d="M423.451 892.173C423.451 892.83 423.544 893.548 423.742 894.34C423.951 895.132 424.367 895.861 424.992 896.528C425.617 897.194 426.482 897.767 427.596 898.236C428.721 898.694 430.169 898.923 431.951 898.923C432.878 898.923 433.794 898.876 434.701 898.778C435.617 898.668 436.43 898.455 437.138 898.132C437.846 897.814 438.419 897.371 438.867 896.798C439.31 896.231 439.534 895.481 439.534 894.548C439.534 893.413 439.206 892.481 438.555 891.757C437.914 891.022 437.076 890.423 436.034 889.965C435.003 889.496 433.852 889.111 432.576 888.819C431.31 888.517 430.023 888.215 428.721 887.923C426.815 887.522 425.018 887.048 423.326 886.507C421.628 885.955 420.143 885.21 418.867 884.278C417.586 883.35 416.576 882.142 415.826 880.653C415.076 879.153 414.701 877.21 414.701 874.819C414.701 873.111 415.003 871.496 415.617 869.965C416.227 868.423 417.221 867.085 418.596 865.944C419.971 864.809 421.768 863.903 423.992 863.236C426.211 862.569 428.93 862.236 432.138 862.236C435.081 862.236 437.565 862.626 439.596 863.403C441.622 864.168 443.273 865.163 444.555 866.382C445.831 867.59 446.763 868.965 447.346 870.507C447.93 872.038 448.242 873.569 448.284 875.111H438.805C438.721 874.543 438.56 873.981 438.326 873.423C438.086 872.856 437.685 872.361 437.117 871.944C436.544 871.517 435.805 871.168 434.888 870.903C433.982 870.642 432.867 870.507 431.534 870.507C430.268 870.507 429.221 870.621 428.388 870.84C427.565 871.064 426.898 871.371 426.388 871.757C425.888 872.132 425.523 872.564 425.305 873.048C425.081 873.538 424.971 874.043 424.971 874.569C424.971 875.501 425.227 876.267 425.742 876.861C426.268 877.444 426.951 877.934 427.784 878.319C428.617 878.694 429.518 878.996 430.492 879.215C431.461 879.439 432.414 879.632 433.346 879.798C435.565 880.246 437.68 880.736 439.68 881.278C441.69 881.819 443.451 882.58 444.951 883.548C446.451 884.522 447.628 885.772 448.492 887.298C449.367 888.814 449.805 890.725 449.805 893.028C449.805 893.6 449.747 894.35 449.638 895.278C449.539 896.21 449.294 897.205 448.909 898.257C448.534 899.314 447.956 900.371 447.18 901.423C446.414 902.465 445.367 903.418 444.034 904.278C442.701 905.126 441.039 905.819 439.055 906.361C437.065 906.903 434.659 907.173 431.826 907.173C427.893 907.173 424.721 906.658 422.305 905.632C419.898 904.606 418.034 903.335 416.701 901.819C415.367 900.293 414.461 898.663 413.992 896.923C413.534 895.173 413.305 893.59 413.305 892.173H423.451Z" fill="#FFFAF6"/>
<path d="M480.947 875.611H480.781V905.965H470.76V863.465H484.843L494.989 892.673L505.135 863.465H519.218V905.965H509.197V875.611H509.01L498.385 905.965H491.572L480.947 875.611Z" fill="#FFFAF6"/>
<path d="M559.363 880.34V888.173H538.592V897.715H562.759V905.965H528.571V863.465H562.155V871.715H538.592V880.34H559.363Z" fill="#FFFAF6"/>
<path d="M565.793 890.298H575.814V892.007C575.814 894.272 576.189 895.996 576.939 897.173C577.689 898.34 579.033 898.923 580.98 898.923C582.908 898.923 584.168 898.319 584.751 897.111C585.345 895.892 585.647 894.189 585.647 892.007V863.465H595.668V890.611C595.668 894.251 595.22 897.168 594.335 899.361C593.444 901.543 592.298 903.21 590.897 904.361C589.507 905.517 587.939 906.267 586.189 906.632C584.449 906.991 582.73 907.173 581.022 907.173C577.741 907.173 575.105 906.673 573.105 905.673C571.105 904.663 569.553 903.423 568.46 901.965C567.361 900.507 566.637 898.96 566.293 897.319C565.96 895.684 565.793 894.23 565.793 892.965V890.298Z" fill="#FFFAF6"/>
<path d="M623.958 898.923C625.666 898.923 627.114 898.663 628.312 898.132C629.505 897.606 630.489 896.913 631.271 896.048C632.062 895.173 632.677 894.21 633.125 893.153C633.583 892.1 633.922 891.048 634.146 890.007C634.364 888.955 634.505 887.96 634.562 887.028C634.614 886.085 634.646 885.314 634.646 884.715C634.646 884.064 634.614 883.267 634.562 882.319C634.505 881.361 634.364 880.361 634.146 879.319C633.922 878.267 633.583 877.21 633.125 876.153C632.677 875.1 632.062 874.153 631.271 873.319C630.489 872.486 629.505 871.814 628.312 871.298C627.114 870.772 625.666 870.507 623.958 870.507C622.583 870.507 621.255 870.725 619.979 871.153C618.713 871.569 617.583 872.314 616.583 873.382C615.593 874.455 614.802 875.913 614.208 877.757C613.625 879.606 613.333 881.923 613.333 884.715C613.333 887.507 613.625 889.814 614.208 891.632C614.802 893.455 615.593 894.903 616.583 895.986C617.583 897.059 618.713 897.814 619.979 898.257C621.255 898.705 622.583 898.923 623.958 898.923ZM623.958 907.173C619.75 907.173 616.271 906.465 613.521 905.048C610.771 903.632 608.573 901.835 606.937 899.653C605.297 897.46 604.135 895.043 603.458 892.403C602.791 889.751 602.458 887.189 602.458 884.715C602.458 882.246 602.791 879.684 603.458 877.028C604.135 874.376 605.297 871.96 606.937 869.778C608.573 867.585 610.771 865.778 613.521 864.361C616.271 862.944 619.75 862.236 623.958 862.236C627.609 862.236 630.791 862.809 633.5 863.944C636.208 865.069 638.442 866.642 640.208 868.653C641.968 870.653 643.281 873.028 644.146 875.778C645.021 878.528 645.458 881.507 645.458 884.715C645.458 887.955 645.021 890.939 644.146 893.673C643.281 896.397 641.968 898.767 640.208 900.778C638.442 902.778 636.208 904.35 633.5 905.486C630.791 906.611 627.609 907.173 623.958 907.173Z" fill="#FFFAF6"/>
<path d="M662.777 882.527H671.943C673.36 882.527 674.49 882.35 675.339 881.986C676.183 881.611 676.829 881.152 677.277 880.611C677.719 880.069 678.011 879.496 678.152 878.882C678.303 878.272 678.381 877.704 678.381 877.173C678.381 875.079 677.787 873.647 676.61 872.882C675.443 872.105 673.761 871.715 671.568 871.715H662.777V882.527ZM652.756 863.465H674.485C675.219 863.465 676.079 863.507 677.068 863.59C678.053 863.663 679.079 863.84 680.152 864.132C681.235 864.413 682.303 864.829 683.36 865.382C684.412 865.923 685.35 866.642 686.173 867.527C687.006 868.418 687.673 869.522 688.173 870.84C688.683 872.147 688.943 873.715 688.943 875.548C688.943 877.329 688.683 878.85 688.173 880.111C687.673 881.361 687.048 882.392 686.298 883.194C685.548 884.001 684.735 884.642 683.86 885.111C682.995 885.569 682.219 885.923 681.527 886.173V886.298C682.985 886.746 684.115 887.382 684.923 888.215C685.74 889.038 686.35 889.944 686.756 890.944C687.157 891.934 687.402 892.934 687.485 893.944C687.568 894.96 687.61 895.85 687.61 896.611C687.652 897.944 687.678 899.09 687.693 900.048C687.719 900.996 687.782 901.814 687.881 902.507C687.975 903.189 688.136 903.809 688.36 904.361C688.579 904.902 688.881 905.439 689.256 905.965H679.048C678.6 905.314 678.287 904.689 678.11 904.09C677.928 903.48 677.803 902.777 677.735 901.986C677.678 901.194 677.631 900.267 677.589 899.194C677.548 898.126 677.464 896.777 677.339 895.152C677.214 893.902 676.844 892.944 676.235 892.277C675.636 891.611 674.949 891.126 674.173 890.819C673.407 890.517 672.673 890.355 671.964 890.34C671.256 890.314 670.761 890.298 670.485 890.298H662.777V905.965H652.756V863.465Z" fill="#FFFAF6"/>
</svg>
